<svg width="419" height="421" xmlns="http://www.w3.org/2000/svg" xmlns:xlink="http://www.w3.org/1999/xlink" xml:space="preserve" overflow="hidden"><defs><filter id="fx0" x="-10%" y="-10%" width="120%" height="120%" filterUnits="userSpaceOnUse" primitiveUnits="userSpaceOnUse"><feComponentTransfer color-interpolation-filters="sRGB"><feFuncR type="discrete" tableValues="0 0"/><feFuncG type="discrete" tableValues="0 0"/><feFuncB type="discrete" tableValues="0 0"/><feFuncA type="linear" slope="0.4" intercept="0"/></feComponentTransfer><feGaussianBlur stdDeviation="6.11111 6.11111"/></filter><filter id="fx1" x="-10%" y="-10%" width="120%" height="120%" filterUnits="userSpaceOnUse" primitiveUnits="userSpaceOnUse"><feComponentTransfer color-interpolation-filters="sRGB"><feFuncR type="discrete" tableValues="0 0"/><feFuncG type="discrete" tableValues="0 0"/><feFuncB type="discrete" tableValues="0 0"/><feFuncA type="linear" slope="0.4" intercept="0"/></feComponentTransfer><feGaussianBlur stdDeviation="6.11111 6.11111"/></filter><filter id="fx2" x="-10%" y="-10%" width="120%" height="120%" filterUnits="userSpaceOnUse" primitiveUnits="userSpaceOnUse"><feComponentTransfer color-interpolation-filters="sRGB"><feFuncR type="discrete" tableValues="0 0"/><feFuncG type="discrete" tableValues="0 0"/><feFuncB type="discrete" tableValues="0 0"/><feFuncA type="linear" slope="0.4" intercept="0"/></feComponentTransfer><feGaussianBlur stdDeviation="7.63889 7.63889"/></filter><clipPath id="clip3"><rect x="2283" y="1338" width="419" height="421"/></clipPath><linearGradient x1="2578.5" y1="1467" x2="2578.5" y2="1745" gradientUnits="userSpaceOnUse" spreadMethod="reflect" id="fill4"><stop offset="0" stop-color="#FFBE05"/><stop offset="0.16" stop-color="#FFBE05"/><stop offset="0.87" stop-color="#FFE18B"/><stop offset="1" stop-color="#FFE18B"/></linearGradient><clipPath id="clip5"><rect x="-3" y="-3" width="375" height="279"/></clipPath><clipPath id="clip6"><rect x="0" y="0" width="368" height="272"/></clipPath><linearGradient x1="2613.08" y1="1384.92" x2="2369.89" y2="1532.5" gradientUnits="userSpaceOnUse" spreadMethod="reflect" id="fill7"><stop offset="0" stop-color="#D9372B"/><stop offset="0.16" stop-color="#D9372B"/><stop offset="0.87" stop-color="#E37067"/><stop offset="1" stop-color="#E37067"/></linearGradient><clipPath id="clip8"><rect x="-3" y="-3" width="307" height="341"/></clipPath><clipPath id="clip9"><rect x="0" y="0" width="300" height="334"/></clipPath><linearGradient x1="2280.64" y1="1526.66" x2="2528.2" y2="1666.79" gradientUnits="userSpaceOnUse" spreadMethod="reflect" id="fill10"><stop offset="0" stop-color="#1FDB7D"/><stop offset="0.0172414" stop-color="#1EDA7C"/><stop offset="0.0344828" stop-color="#1EDA7C"/><stop offset="0.0517241" stop-color="#1EDA7C"/><stop offset="0.0689655" stop-color="#1EDA7C"/><stop offset="0.0862069" stop-color="#1EDA7C"/><stop offset="0.103448" stop-color="#1EDA7C"/><stop offset="0.12069" stop-color="#1ED97C"/><stop offset="0.137931" stop-color="#1ED97C"/><stop offset="0.155172" stop-color="#1ED97C"/><stop offset="0.172414" stop-color="#1ED87B"/><stop offset="0.189655" stop-color="#1ED87B"/><stop offset="0.206897" stop-color="#1ED77B"/><stop offset="0.224138" stop-color="#1ED77B"/><stop offset="0.241379" stop-color="#1ED67A"/><stop offset="0.258621" stop-color="#1ED67A"/><stop offset="0.275862" stop-color="#1ED57A"/><stop offset="0.293103" stop-color="#1ED579"/><stop offset="0.310345" stop-color="#1ED479"/><stop offset="0.327586" stop-color="#1ED379"/><stop offset="0.344828" stop-color="#1DD278"/><stop offset="0.362069" stop-color="#1DD278"/><stop offset="0.37931" stop-color="#1DD177"/><stop offset="0.396552" stop-color="#1DD077"/><stop offset="0.413793" stop-color="#1DCF76"/><stop offset="0.431034" stop-color="#1DCE76"/><stop offset="0.448276" stop-color="#1DCD75"/><stop offset="0.465517" stop-color="#1DCC75"/><stop offset="0.482759" stop-color="#1CCB74"/><stop offset="0.5" stop-color="#1CCA74"/><stop offset="0.517241" stop-color="#1CC973"/><stop offset="0.534483" stop-color="#1CC873"/><stop offset="0.551724" stop-color="#1CC772"/><stop offset="0.568965" stop-color="#1CC671"/><stop offset="0.586207" stop-color="#1CC571"/><stop offset="0.603448" stop-color="#1BC470"/><stop offset="0.62069" stop-color="#1BC26F"/><stop offset="0.637931" stop-color="#1BC16F"/><stop offset="0.655172" stop-color="#1BC06E"/><stop offset="0.672414" stop-color="#1BBE6D"/><stop offset="0.689655" stop-color="#1BBD6D"/><stop offset="0.706897" stop-color="#1ABC6C"/><stop offset="0.724138" stop-color="#1ABA6B"/><stop offset="0.741379" stop-color="#1AB96A"/><stop offset="0.758621" stop-color="#1AB769"/><stop offset="0.775862" stop-color="#1AB669"/><stop offset="0.793103" stop-color="#19B468"/><stop offset="0.810345" stop-color="#19B367"/><stop offset="0.827586" stop-color="#19B166"/><stop offset="0.844828" stop-color="#19AF65"/><stop offset="0.862069" stop-color="#18AE64"/><stop offset="0.87931" stop-color="#18AC63"/><stop offset="0.896552" stop-color="#18AA62"/><stop offset="0.913793" stop-color="#18A961"/><stop offset="0.931035" stop-color="#18A761"/><stop offset="0.948276" stop-color="#17A560"/><stop offset="0.965517" stop-color="#17A35F"/><stop offset="0.982759" stop-color="#17A15E"/><stop offset="1" stop-color="#17A05D"/></linearGradient><clipPath id="clip11"><rect x="-7" y="-7" width="224" height="228"/></clipPath><clipPath id="clip12"><rect x="0" y="0" width="210" height="216"/></clipPath></defs><g clip-path="url(#clip3)" transform="translate(-2283 -1338)"><path d="M2284 1548.5C2284 1433.9 2377.12 1341 2492 1341 2606.88 1341 2700 1433.9 2700 1548.5 2700 1663.1 2606.88 1756 2492 1756 2377.12 1756 2284 1663.1 2284 1548.5Z" fill="#FFFFFF" fill-rule="evenodd"/><path d="M2312 1548.5C2312 1447.71 2392.81 1366 2492.5 1366 2592.19 1366 2673 1447.71 2673 1548.5 2673 1649.29 2592.19 1731 2492.5 1731 2392.81 1731 2312 1649.29 2312 1548.5Z" fill="#FFCD43" fill-rule="evenodd"/><path d="M2562.33 1484.19C2579.88 1463.56 2642.16 1477.31 2680.35 1467 2711.49 1513.06 2667.91 1638.27 2632.18 1681.47 2596.46 1724.66 2497.14 1772.22 2466 1726.16L2562.33 1484.19Z" fill="url(#fill4)" fill-rule="evenodd"/><g clip-path="url(#clip5)" filter="url(#fx0)" transform="translate(2309 1363)"><g clip-path="url(#clip6)"><path d="M191.785 20.409C246.164 22.8631 361.909 73.1358 346.096 130.314 225.978 100.631 196.23 212.131 115.958 252.022L19.8244 115.589C35.6371 58.4108 137.407 17.9548 191.785 20.409Z" fill="#FF0000" fill-rule="evenodd"/></g></g><path d="M2500.79 1369.66C2555.16 1372.11 2670.91 1422.39 2655.1 1479.56 2534.98 1449.88 2505.23 1561.38 2424.96 1601.27L2328.82 1464.84C2344.64 1407.66 2446.41 1367.2 2500.79 1369.66Z" fill="url(#fill7)" fill-rule="evenodd"/><g clip-path="url(#clip8)" filter="url(#fx1)" transform="translate(2291 1414)"><g clip-path="url(#clip9)"><path d="M40.8919 208.377C16.4754 159.727 3.81534 34.1718 61.4329 20.045 94.1964 139.36 206.023 110.863 280.036 161.429L207.932 311.95C150.315 326.076 65.3085 257.028 40.8919 208.377Z" fill="#FF0000" fill-rule="evenodd"/></g></g><path d="M2322.17 1632.1C2297.75 1583.45 2285.09 1457.89 2342.71 1443.77 2375.47 1563.08 2487.3 1534.59 2561.31 1585.15L2489.21 1735.67C2431.59 1749.8 2346.59 1680.75 2322.17 1632.1Z" fill="url(#fill10)" fill-rule="evenodd"/><g clip-path="url(#clip11)" filter="url(#fx2)" transform="translate(2389 1441)"><g clip-path="url(#clip12)"><path d="M24.4199 108C24.4199 61.807 60.4968 24.3601 105 24.3601 149.503 24.3601 185.58 61.807 185.58 108 185.58 154.193 149.503 191.64 105 191.64 60.4968 191.64 24.4199 154.193 24.4199 108Z" fill="#FFFFFF" fill-rule="evenodd"/></g></g><path d="M2415 1549C2415 1503.71 2450.37 1467 2494 1467 2537.63 1467 2573 1503.71 2573 1549 2573 1594.29 2537.63 1631 2494 1631 2450.37 1631 2415 1594.29 2415 1549Z" fill="#FFFFFF" fill-rule="evenodd"/><path d="M2429 1549C2429 1513.1 2458.1 1484 2494 1484 2529.9 1484 2559 1513.1 2559 1549 2559 1584.9 2529.9 1614 2494 1614 2458.1 1614 2429 1584.9 2429 1549Z" fill="#4A8AF4" fill-rule="evenodd"/><path d="M2299 1548.5C2299 1441.08 2385.63 1354 2492.5 1354 2599.37 1354 2686 1441.08 2686 1548.5 2686 1655.92 2599.37 1743 2492.5 1743 2385.63 1743 2299 1655.92 2299 1548.5Z" stroke="#FFFFFF" stroke-width="32.0833" stroke-miterlimit="8" fill="#FFFFFF" fill-rule="evenodd" fill-opacity="0"/></g></svg>