<svg width="419" height="421" xmlns="http://www.w3.org/2000/svg" xmlns:xlink="http://www.w3.org/1999/xlink" xml:space="preserve" overflow="hidden"><defs><filter id="fx0" x="-10%" y="-10%" width="120%" height="120%" filterUnits="userSpaceOnUse" primitiveUnits="userSpaceOnUse"><feComponentTransfer color-interpolation-filters="sRGB"><feFuncR type="discrete" tableValues="0 0"/><feFuncG type="discrete" tableValues="0 0"/><feFuncB type="discrete" tableValues="0 0"/><feFuncA type="linear" slope="0.4" intercept="0"/></feComponentTransfer><feGaussianBlur stdDeviation="6.11111 6.11111"/></filter><filter id="fx1" x="-10%" y="-10%" width="120%" height="120%" filterUnits="userSpaceOnUse" primitiveUnits="userSpaceOnUse"><feComponentTransfer color-interpolation-filters="sRGB"><feFuncR type="discrete" tableValues="0 0"/><feFuncG type="discrete" tableValues="0 0"/><feFuncB type="discrete" tableValues="0 0"/><feFuncA type="linear" slope="0.4" intercept="0"/></feComponentTransfer><feGaussianBlur stdDeviation="6.11111 6.11111"/></filter><filter id="fx2" x="-10%" y="-10%" width="120%" height="120%" filterUnits="userSpaceOnUse" primitiveUnits="userSpaceOnUse"><feComponentTransfer color-interpolation-filters="sRGB"><feFuncR type="discrete" tableValues="0 0"/><feFuncG type="discrete" tableValues="0 0"/><feFuncB type="discrete" tableValues="0 0"/><feFuncA type="linear" slope="0.4" intercept="0"/></feComponentTransfer><feGaussianBlur stdDeviation="7.63889 7.63889"/></filter><clipPath id="clip3"><rect x="1711" y="1338" width="419" height="421"/></clipPath><linearGradient x1="2006.5" y1="1467" x2="2006.5" y2="1745" gradientUnits="userSpaceOnUse" spreadMethod="reflect" id="fill4"><stop offset="0" stop-color="#A0C2F9"/><stop offset="0.16" stop-color="#A0C2F9"/><stop offset="0.87" stop-color="#6991E1"/><stop offset="1" stop-color="#6991E1"/></linearGradient><clipPath id="clip5"><rect x="-3" y="-3" width="375" height="279"/></clipPath><clipPath id="clip6"><rect x="0" y="0" width="368" height="272"/></clipPath><linearGradient x1="2041.19" y1="1384.92" x2="1797.99" y2="1532.5" gradientUnits="userSpaceOnUse" spreadMethod="reflect" id="fill7"><stop offset="0" stop-color="#4171D8"/><stop offset="0.16" stop-color="#4171D8"/><stop offset="0.87" stop-color="#20469C"/><stop offset="1" stop-color="#20469C"/></linearGradient><clipPath id="clip8"><rect x="-3" y="-3" width="307" height="341"/></clipPath><clipPath id="clip9"><rect x="0" y="0" width="300" height="334"/></clipPath><linearGradient x1="1708.74" y1="1526.66" x2="1956.3" y2="1666.79" gradientUnits="userSpaceOnUse" spreadMethod="reflect" id="fill10"><stop offset="0" stop-color="#639AF6"/><stop offset="0.0116279" stop-color="#6299F5"/><stop offset="0.0232558" stop-color="#6299F5"/><stop offset="0.0348837" stop-color="#6299F5"/><stop offset="0.0465116" stop-color="#6299F5"/><stop offset="0.0581395" stop-color="#6299F5"/><stop offset="0.0697674" stop-color="#6299F5"/><stop offset="0.0813954" stop-color="#6299F5"/><stop offset="0.0930233" stop-color="#6199F5"/><stop offset="0.104651" stop-color="#6199F5"/><stop offset="0.116279" stop-color="#6198F5"/><stop offset="0.127907" stop-color="#6198F5"/><stop offset="0.139535" stop-color="#6098F5"/><stop offset="0.151163" stop-color="#6098F5"/><stop offset="0.162791" stop-color="#6097F5"/><stop offset="0.174419" stop-color="#5F97F4"/><stop offset="0.186047" stop-color="#5F97F4"/><stop offset="0.197674" stop-color="#5E96F4"/><stop offset="0.209302" stop-color="#5E96F4"/><stop offset="0.22093" stop-color="#5D96F4"/><stop offset="0.232558" stop-color="#5D95F4"/><stop offset="0.244186" stop-color="#5C95F4"/><stop offset="0.255814" stop-color="#5C95F3"/><stop offset="0.267442" stop-color="#5B94F3"/><stop offset="0.27907" stop-color="#5B94F3"/><stop offset="0.290698" stop-color="#5A93F3"/><stop offset="0.302326" stop-color="#5993F3"/><stop offset="0.313953" stop-color="#5992F2"/><stop offset="0.325581" stop-color="#5892F2"/><stop offset="0.337209" stop-color="#5791F2"/><stop offset="0.348837" stop-color="#5691F2"/><stop offset="0.360465" stop-color="#5690F1"/><stop offset="0.372093" stop-color="#558FF1"/><stop offset="0.383721" stop-color="#548FF1"/><stop offset="0.395349" stop-color="#538EF1"/><stop offset="0.406977" stop-color="#528EF0"/><stop offset="0.418605" stop-color="#528DF0"/><stop offset="0.430233" stop-color="#518CF0"/><stop offset="0.44186" stop-color="#508CEF"/><stop offset="0.453488" stop-color="#4F8BEF"/><stop offset="0.465116" stop-color="#4E8AEF"/><stop offset="0.476744" stop-color="#4D8AEF"/><stop offset="0.488372" stop-color="#4C89EE"/><stop offset="0.5" stop-color="#4B88EE"/><stop offset="0.511628" stop-color="#4A87EE"/><stop offset="0.523256" stop-color="#4986ED"/><stop offset="0.534884" stop-color="#4886ED"/><stop offset="0.546512" stop-color="#4685EC"/><stop offset="0.55814" stop-color="#4584EC"/><stop offset="0.569767" stop-color="#4483EC"/><stop offset="0.581395" stop-color="#4382EB"/><stop offset="0.593023" stop-color="#4281EB"/><stop offset="0.604651" stop-color="#4181EB"/><stop offset="0.616279" stop-color="#3F80EA"/><stop offset="0.627907" stop-color="#3E7FEA"/><stop offset="0.639535" stop-color="#3D7EE9"/><stop offset="0.651163" stop-color="#3C7DE9"/><stop offset="0.662791" stop-color="#3A7CE9"/><stop offset="0.674419" stop-color="#397BE8"/><stop offset="0.686047" stop-color="#387AE8"/><stop offset="0.697674" stop-color="#3679E7"/><stop offset="0.709302" stop-color="#3578E7"/><stop offset="0.72093" stop-color="#3377E6"/><stop offset="0.732558" stop-color="#3276E6"/><stop offset="0.744186" stop-color="#3175E5"/><stop offset="0.755814" stop-color="#2F74E5"/><stop offset="0.767442" stop-color="#2E73E4"/><stop offset="0.77907" stop-color="#2C71E4"/><stop offset="0.790698" stop-color="#2A70E3"/><stop offset="0.802326" stop-color="#296FE3"/><stop offset="0.813953" stop-color="#276EE2"/><stop offset="0.825581" stop-color="#266DE2"/><stop offset="0.837209" stop-color="#246CE1"/><stop offset="0.848837" stop-color="#236AE1"/><stop offset="0.860465" stop-color="#2169E0"/><stop offset="0.872093" stop-color="#1F68E0"/><stop offset="0.883721" stop-color="#1D67DF"/><stop offset="0.895349" stop-color="#1C65DF"/><stop offset="0.906977" stop-color="#1A64DE"/><stop offset="0.918605" stop-color="#1863DE"/><stop offset="0.930233" stop-color="#1762DD"/><stop offset="0.94186" stop-color="#1560DC"/><stop offset="0.953488" stop-color="#135FDC"/><stop offset="0.965116" stop-color="#115EDB"/><stop offset="0.976744" stop-color="#0F5CDB"/><stop offset="0.988372" stop-color="#0D5BDA"/><stop offset="1" stop-color="#0C5ADA"/></linearGradient><clipPath id="clip11"><rect x="-7" y="-7" width="224" height="228"/></clipPath><clipPath id="clip12"><rect x="0" y="0" width="210" height="216"/></clipPath></defs><g clip-path="url(#clip3)" transform="translate(-1711 -1338)"><path d="M1712 1548.5C1712 1433.9 1805.12 1341 1920 1341 2034.88 1341 2128 1433.9 2128 1548.5 2128 1663.1 2034.88 1756 1920 1756 1805.12 1756 1712 1663.1 1712 1548.5Z" fill="#FFFFFF" fill-rule="evenodd"/><path d="M1740 1548.5C1740 1447.71 1820.81 1366 1920.5 1366 2020.19 1366 2101 1447.71 2101 1548.5 2101 1649.29 2020.19 1731 1920.5 1731 1820.81 1731 1740 1649.29 1740 1548.5Z" fill="#FFCD43" fill-rule="evenodd"/><path d="M1990.33 1484.19C2007.88 1463.56 2070.16 1477.31 2108.35 1467 2139.49 1513.06 2095.91 1638.27 2060.18 1681.47 2024.46 1724.66 1925.14 1772.22 1894 1726.16L1990.33 1484.19Z" fill="url(#fill4)" fill-rule="evenodd"/><g clip-path="url(#clip5)" filter="url(#fx0)" transform="translate(1737 1363)"><g clip-path="url(#clip6)"><path d="M191.889 20.409C246.267 22.8631 362.013 73.1358 346.2 130.314 226.081 100.631 196.334 212.131 116.061 252.022L19.928 115.589C35.7407 58.4108 137.51 17.9548 191.889 20.409Z" fill="#FF0000" fill-rule="evenodd"/></g></g><path d="M1928.89 1369.66C1983.27 1372.11 2099.01 1422.39 2083.2 1479.56 1963.08 1449.88 1933.33 1561.38 1853.06 1601.27L1756.93 1464.84C1772.74 1407.66 1874.51 1367.2 1928.89 1369.66Z" fill="url(#fill7)" fill-rule="evenodd"/><g clip-path="url(#clip8)" filter="url(#fx1)" transform="translate(1719 1414)"><g clip-path="url(#clip9)"><path d="M40.9955 208.377C16.5789 159.727 3.91885 34.1718 61.5364 20.045 94.2999 139.36 206.126 110.863 280.14 161.429L208.036 311.95C150.418 326.076 65.412 257.028 40.9955 208.377Z" fill="#FF0000" fill-rule="evenodd"/></g></g><path d="M1750.27 1632.1C1725.86 1583.45 1713.2 1457.89 1770.81 1443.77 1803.58 1563.08 1915.4 1534.59 1989.42 1585.15L1917.31 1735.67C1859.7 1749.8 1774.69 1680.75 1750.27 1632.1Z" fill="url(#fill10)" fill-rule="evenodd"/><g clip-path="url(#clip11)" filter="url(#fx2)" transform="translate(1817 1441)"><g clip-path="url(#clip12)"><path d="M24.4198 108C24.4198 61.807 60.4967 24.3601 105 24.3601 149.503 24.3601 185.58 61.807 185.58 108 185.58 154.193 149.503 191.64 105 191.64 60.4967 191.64 24.4198 154.193 24.4198 108Z" fill="#FFFFFF" fill-rule="evenodd"/></g></g><path d="M1843 1549C1843 1503.71 1878.37 1467 1922 1467 1965.63 1467 2001 1503.71 2001 1549 2001 1594.29 1965.63 1631 1922 1631 1878.37 1631 1843 1594.29 1843 1549Z" fill="#FFFFFF" fill-rule="evenodd"/><path d="M1857 1549C1857 1513.1 1886.1 1484 1922 1484 1957.9 1484 1987 1513.1 1987 1549 1987 1584.9 1957.9 1614 1922 1614 1886.1 1614 1857 1584.9 1857 1549Z" fill="#4B8AF4" fill-rule="evenodd"/><path d="M1727 1548.5C1727 1441.08 1813.63 1354 1920.5 1354 2027.37 1354 2114 1441.08 2114 1548.5 2114 1655.92 2027.37 1743 1920.5 1743 1813.63 1743 1727 1655.92 1727 1548.5Z" stroke="#FFFFFF" stroke-width="32.0833" stroke-miterlimit="8" fill="#FFFFFF" fill-rule="evenodd" fill-opacity="0"/></g></svg>