<svg width="1760" height="1760" xmlns="http://www.w3.org/2000/svg" xmlns:xlink="http://www.w3.org/1999/xlink" xml:space="preserve" overflow="hidden"><defs><clipPath id="clip0"><rect x="650" y="267" width="1760" height="1760"/></clipPath><clipPath id="clip1"><rect x="773" y="390" width="1514" height="1515"/></clipPath><clipPath id="clip2"><rect x="773" y="390" width="1514" height="1515"/></clipPath><clipPath id="clip3"><rect x="773" y="390" width="1514" height="1515"/></clipPath></defs><g clip-path="url(#clip0)" transform="translate(-650 -267)"><path d="M650 560.339C650 398.332 781.332 267 943.339 267L2116.66 267C2278.67 267 2410 398.332 2410 560.339L2410 1733.66C2410 1895.67 2278.67 2027 2116.66 2027L943.339 2027C781.332 2027 650 1895.67 650 1733.66Z" fill="#000000" fill-rule="evenodd" fill-opacity="0.101961"/><path d="M673 1714 2389 1714C2389 1875.82 2260.95 2007 2102.99 2007L959.006 2007C801.049 2007 673 1875.82 673 1714Z" fill="#A6A6A6" fill-rule="evenodd"/><path d="M673 580C673 418.18 801.049 287 959.006 287L2102.99 287C2260.95 287 2389 418.18 2389 580L673 580Z" fill="#BFBFBF" fill-rule="evenodd"/><path d="M673 606.308C673 456.187 796.415 300 942.732 300L2104.86 300C2251.18 300 2389 456.187 2389 606.308L2389 1693.55C2389 1843.67 2251.18 1990 2104.86 1990L943.942 1989.19C797.626 1989.19 673 1843.67 673 1693.55L673 606.308Z" fill="#F0F0F0" fill-rule="evenodd"/><path d="M673 594C673 432.181 801.049 301 959.006 301L2102.99 301C2260.95 301 2389 432.181 2389 594L673 594Z" fill="#D9D9D9" fill-rule="evenodd" fill-opacity="0.501961"/><rect x="673" y="594" width="1716" height="643" fill="#D9D9D9" fill-opacity="0.501961"/><g clip-path="url(#clip1)"><g clip-path="url(#clip2)"><g clip-path="url(#clip3)"><path d="M0 0 0.3026 0C0.252167 0.100867 0.100867 0.252167 0 0.3026L0 0Z" fill="#0B0B0B" transform="matrix(1.00066 0 0 1 773 391)"/><path d="M512.504 264.825C555.473 252.772 598.896 242.181 642.218 231.489 796.948 238.247 951.828 245.661 1106.61 250.906 1107.72 258.067 1108.42 265.33 1108.42 272.592 1108.02 353.033 1108.58 433.525 1108.17 513.966 1109.13 520.724 1101.97 523.75 1097.98 527.634 1072.72 546.294 1049.32 567.526 1023.19 584.875 901.698 572.771 780.708 554.716 659.164 542.814 659.567 615.64 658.004 688.516 659.87 761.342 663.552 810.666 661.383 860.292 666.023 909.565 805.42 930.646 944.516 954.098 1083.96 975.179 1088.91 977.247 1100.86 975.229 1099.3 983.702 1099.8 1052.44 1099.25 1121.23 1099.6 1189.97 1100.96 1202.18 1092.59 1211.91 1087.09 1221.95 1065.4 1259.82 1043.67 1297.7 1022.08 1335.58 1018.45 1345.86 1007 1339.96 999.538 1339.01 849.297 1304.81 698.3 1273.95 547.353 1243.03 543.066 1165.67 543.117 1088.05 538.527 1010.68 473.418 998.177 408.157 986.728 342.947 975.078 337.853 974.473 330.238 971.8 331.347 965.193 327.211 880.415 324.236 795.586 319.647 710.807 319.596 704.907 317.78 699.359 315.864 693.912 318.184 630.265 308.854 566.417 308.602 502.619 352.63 485.623 395.7 466.105 439.98 449.613 466.004 448.453 492.028 452.841 518.102 453.144 516.538 390.354 514.571 327.615 512.504 264.825M546.849 264.119C608.226 268.709 669.755 271.735 731.233 275.265 763.611 280.309 790.845 257.866 820.5 248.737 762.149 245.863 703.797 242.837 645.395 241.071 612.16 246.72 580.034 258.017 546.849 264.119M777.783 276.223C851.214 281.418 924.947 281.569 998.479 285.503 1029.8 290.042 1056.18 269.364 1084.52 259.883 1005.44 256.454 926.309 252.873 847.23 250.049 822.921 254.688 801.335 268.608 777.783 276.223M1025.51 293.875C1025.71 386.471 1025.31 479.066 1025.71 571.662 1049.67 551.842 1075.59 533.988 1098.69 513.411 1099.75 429.843 1099.5 346.124 1098.79 262.506 1074.18 272.592 1049.97 283.486 1025.51 293.875M521.834 273.046C523.548 355.505 528.945 437.862 529.348 520.27 603.183 527.281 676.967 535.098 750.7 543.167 750.297 457.279 750.398 371.391 750.65 285.503 674.395 281.569 598.139 276.425 521.834 273.046M759.93 286.058C759.526 372.299 759.627 458.59 759.879 544.882 845.414 553.556 930.445 566.316 1015.98 574.94 1016.84 481.739 1016.38 388.438 1016.23 295.186 930.798 291.706 845.364 289.437 759.93 286.058M333.818 504.081C395.952 507.864 457.783 515.227 519.968 518.505 519.816 499.895 519.816 481.285 519.867 462.675 494.499 461.768 469.131 458.742 443.813 458.742 406.644 472.51 369.828 487.489 333.818 504.081M318.134 511.545C319.142 566.165 325.547 620.582 325.598 675.202 329.078 695.778 328.422 716.708 329.985 737.436 396.053 748.128 462.423 757.156 528.693 766.637 525.919 687.205 522.641 607.671 517.698 528.289 451.126 522.893 384.605 517.295 318.134 511.545M527.987 529.954C531.668 601.972 534.291 674.042 537.569 746.06 538.779 749.994 535.602 764.015 543.47 760.434 579.63 739.857 614.026 716.153 649.884 694.921 650.287 643.832 650.641 592.793 649.733 541.705 609.134 538.124 568.636 532.929 527.987 529.954M538.376 776.27C543.218 849.449 543.722 922.981 548.916 996.109 581.244 970.085 613.269 943.658 646.001 918.139 650.741 914.205 656.844 909.767 655.381 902.656 654.07 837.647 650.086 772.689 650.489 707.731 611.504 727.501 575.041 752.465 538.376 776.27M330.893 747.573C333.869 819.996 337.349 892.468 340.778 964.891 406.694 976.541 472.409 989.099 538.325 1000.8 536.409 925.956 532.273 851.164 529.853 776.371 463.432 767.394 397.263 756.954 330.893 747.573M654.978 923.435C621.641 950.265 588.254 977.045 554.868 1003.83 628.147 1018.3 701.629 1031.71 774.959 1045.99 805.168 1013.81 837.042 983.248 867.05 950.87 801.688 939.977 736.226 929.739 670.864 919.097 664.711 917.685 659.416 919.097 654.978 923.435M878.902 952.131C847.331 983.652 815.507 1015.02 785.55 1048.06 861.754 1062.78 937.909 1077.96 1014.26 1092.03 1037.31 1055.87 1062.43 1021.07 1085.58 984.963 1016.69 973.969 947.693 963.781 878.902 952.131M1023.34 1094.3C1017.04 1103.13 1020.22 1114.63 1019.46 1124.76 1020.67 1189.77 1017.14 1255.13 1021.22 1319.99 1042.46 1277.73 1070.5 1238.64 1089.66 1195.57 1090.47 1128.95 1090.27 1062.23 1089.71 995.605 1067.22 1028.23 1045.38 1061.32 1023.34 1094.3M548.614 1012.65C551.085 1086.94 552.749 1161.28 555.977 1235.52 627.744 1250.24 699.712 1264.16 771.277 1279.8 770.672 1204.65 772.235 1129.45 770.47 1054.31 696.333 1041.4 622.751 1025.56 548.614 1012.65M780.607 1056.88C780.153 1131.72 780.103 1206.57 780.607 1281.36 857.266 1297.65 933.622 1315.5 1010.48 1330.94 1009.98 1254.18 1011.19 1177.42 1009.78 1100.71 933.269 1086.94 857.115 1070.8 780.607 1056.88Z" fill="#0B0B0B" transform="matrix(1.00066 0 0 1 773 391)"/><path d="M546.849 264.119C580.034 258.017 612.16 246.72 645.395 241.071 703.797 242.837 762.149 245.863 820.5 248.737 790.845 257.866 763.611 280.309 731.233 275.265 669.755 271.735 608.226 268.709 546.849 264.119Z" fill="#DBDBDB" transform="matrix(1.00066 0 0 1 773 391)"/><path d="M777.783 276.223C801.335 268.608 822.921 254.688 847.23 250.049 926.309 252.873 1005.44 256.454 1084.52 259.883 1056.18 269.364 1029.8 290.042 998.479 285.503 924.947 281.569 851.214 281.418 777.783 276.223Z" fill="#DBDBDB" transform="matrix(1.00066 0 0 1 773 391)"/><path d="M333.818 504.081C369.828 487.489 406.644 472.51 443.813 458.742 469.131 458.742 494.499 461.768 519.867 462.675 519.816 481.285 519.816 499.895 519.968 518.505 457.783 515.227 395.952 507.864 333.818 504.081Z" fill="#DBDBDB" transform="matrix(1.00066 0 0 1 773 391)"/><path d="M654.978 923.435C659.416 919.097 664.711 917.685 670.864 919.097 736.226 929.739 801.688 939.977 867.05 950.87 837.042 983.248 805.168 1013.81 774.959 1045.99 701.629 1031.71 628.147 1018.3 554.868 1003.83 588.254 977.045 621.641 950.265 654.978 923.435Z" fill="#DBDBDB" transform="matrix(1.00066 0 0 1 773 391)"/><path d="M878.902 952.131C947.693 963.781 1016.69 973.969 1085.58 984.963 1062.43 1021.07 1037.31 1055.87 1014.26 1092.03 937.909 1077.96 861.754 1062.78 785.55 1048.06 815.507 1015.02 847.331 983.652 878.902 952.131Z" fill="#DBDBDB" transform="matrix(1.00066 0 0 1 773 391)"/><path d="M1025.51 293.875C1049.97 283.486 1074.18 272.592 1098.79 262.506 1099.5 346.124 1099.75 429.843 1098.69 513.411 1075.59 533.988 1049.67 551.842 1025.71 571.662 1025.31 479.066 1025.71 386.471 1025.51 293.875Z" fill="#959595" transform="matrix(1.00066 0 0 1 773 391)"/><path d="M521.834 273.046C598.139 276.425 674.395 281.569 750.65 285.503 750.398 371.391 750.297 457.279 750.7 543.167 676.967 535.098 603.183 527.281 529.348 520.27 528.945 437.862 523.548 355.505 521.834 273.046Z" fill="#959595" transform="matrix(1.00066 0 0 1 773 391)"/><path d="M759.93 286.058C845.364 289.437 930.798 291.706 1016.23 295.186 1016.38 388.438 1016.84 481.739 1015.98 574.94 930.445 566.316 845.414 553.556 759.879 544.882 759.627 458.59 759.526 372.299 759.93 286.058Z" fill="#959595" transform="matrix(1.00066 0 0 1 773 391)"/><path d="M318.134 511.545C384.605 517.295 451.126 522.893 517.698 528.289 522.641 607.671 525.919 687.205 528.693 766.637 462.423 757.156 396.053 748.128 329.985 737.436 328.422 716.708 329.078 695.778 325.598 675.202 325.547 620.582 319.142 566.165 318.134 511.545Z" fill="#959595" transform="matrix(1.00066 0 0 1 773 391)"/><path d="M330.893 747.573C397.263 756.954 463.432 767.394 529.853 776.371 532.273 851.164 536.409 925.956 538.325 1000.8 472.409 989.099 406.694 976.541 340.778 964.891 337.349 892.468 333.869 819.996 330.893 747.573Z" fill="#959595" transform="matrix(1.00066 0 0 1 773 391)"/><path d="M1023.34 1094.3C1045.38 1061.32 1067.22 1028.23 1089.71 995.605 1090.27 1062.23 1090.47 1128.95 1089.66 1195.57 1070.5 1238.64 1042.46 1277.73 1021.22 1319.99 1017.14 1255.13 1020.67 1189.77 1019.46 1124.76 1020.22 1114.63 1017.04 1103.13 1023.34 1094.3Z" fill="#959595" transform="matrix(1.00066 0 0 1 773 391)"/><path d="M548.614 1012.65C622.751 1025.56 696.333 1041.4 770.47 1054.31 772.235 1129.45 770.672 1204.65 771.277 1279.8 699.712 1264.16 627.744 1250.24 555.977 1235.52 552.749 1161.28 551.085 1086.94 548.614 1012.65Z" fill="#959595" transform="matrix(1.00066 0 0 1 773 391)"/><path d="M780.607 1056.88C857.115 1070.8 933.269 1086.94 1009.78 1100.71 1011.19 1177.42 1009.98 1254.18 1010.48 1330.94 933.622 1315.5 857.266 1297.65 780.607 1281.36 780.103 1206.57 780.153 1131.72 780.607 1056.88Z" fill="#959595" transform="matrix(1.00066 0 0 1 773 391)"/><path d="M527.987 529.954C568.636 532.929 609.134 538.124 649.733 541.705 650.641 592.793 650.287 643.832 649.884 694.921 614.026 716.153 579.63 739.857 543.47 760.434 535.602 764.015 538.779 749.994 537.569 746.06 534.291 674.042 531.668 601.972 527.987 529.954Z" fill="#6F6F6F" transform="matrix(1.00066 0 0 1 773 391)"/><path d="M538.376 776.27C575.041 752.465 611.504 727.501 650.489 707.731 650.086 772.689 654.07 837.647 655.381 902.656 656.844 909.767 650.741 914.205 646.001 918.139 613.269 943.658 581.244 970.085 548.916 996.109 543.722 922.981 543.218 849.449 538.376 776.27Z" fill="#6F6F6F" transform="matrix(1.00066 0 0 1 773 391)"/></g></g></g></g></svg>