<svg width="1760" height="1760" xmlns="http://www.w3.org/2000/svg" xmlns:xlink="http://www.w3.org/1999/xlink" xml:space="preserve" overflow="hidden"><defs><clipPath id="clip0"><rect x="2390" y="354" width="1760" height="1760"/></clipPath><linearGradient x1="3270" y1="372" x2="3270" y2="2104" gradientUnits="userSpaceOnUse" spreadMethod="reflect" id="fill1"><stop offset="0" stop-color="#828282"/><stop offset="0.46" stop-color="#828282"/><stop offset="0.54" stop-color="#474747"/><stop offset="1" stop-color="#474747"/></linearGradient><clipPath id="clip2"><rect x="2604" y="430" width="1461" height="1446"/></clipPath><clipPath id="clip3"><rect x="2604" y="430" width="1461" height="1446"/></clipPath><clipPath id="clip4"><rect x="2604" y="430" width="1461" height="1446"/></clipPath></defs><g clip-path="url(#clip0)" transform="translate(-2390 -354)"><path d="M2390 1234C2390 747.99 2783.99 354 3270 354 3756.01 354 4150 747.99 4150 1234 4150 1720.01 3756.01 2114 3270 2114 2783.99 2114 2390 1720.01 2390 1234Z" fill="#000000" fill-rule="evenodd" fill-opacity="0.101961"/><path d="M2404 1238C2404 759.721 2791.72 372 3270 372 3748.28 372 4136 759.721 4136 1238 4136 1716.28 3748.28 2104 3270 2104 2791.72 2104 2404 1716.28 2404 1238Z" fill="url(#fill1)" fill-rule="evenodd"/><path d="M2404 1254.78C2404 776.622 2791.72 389 3270 389 3748.28 389 4136 776.622 4136 1254.78 3991.67 1399.07 2548.33 1399.07 2404 1254.78Z" fill="#4D4D4D" fill-rule="evenodd"/><path d="M0 866.667C0 388.02 387.945 0 866.5 0 1345.05 0 1733 388.02 1733 866.667 1588.58 1011.11 144.417 1011.11 0 866.667Z" fill="#555555" fill-rule="evenodd" transform="matrix(1 0 0 -1 2404 2087)"/><g clip-path="url(#clip2)"><g clip-path="url(#clip3)"><g clip-path="url(#clip4)"><path d="M534.849 19.0923C539.209 18.2555 543.635 17.9913 548.106 18.3216 547.225 22.946 544.428 26.095 539.671 27.7466 539.209 27.5704 538.284 27.1961 537.822 27.0199 526.195 33.0097 514.722 39.3738 502.478 43.9982 495.96 47.4555 490.124 52.168 483.121 54.7885 479.796 56.8365 476.515 58.9946 473.146 60.9765 469.468 63.0244 465.967 65.3587 462.487 67.6929 460.439 69.1683 458.37 70.5557 456.277 71.921 448.438 76.6115 441.766 82.9535 433.904 87.5559 431.129 90.4627 428.289 93.3915 424.699 95.3074 422.453 97.1572 420.317 99.1391 418.225 101.187 409.989 109.797 401.511 118.187 393.099 126.621 381.34 139.834 370.946 154.104 361.234 168.924 353.087 177.49 347.89 188.192 341.988 198.322 340.821 201.449 339.654 204.576 338.288 207.615L338.288 209.068C337.606 210.214 336.196 212.504 335.492 213.649 334.501 216.556 333.554 219.506 332.563 222.413 331.858 224.593 331.132 226.773 330.427 228.976 328.929 233.424 327.432 237.872 325.913 242.32 325.186 244.522 324.503 246.747 323.842 248.949 323.05 251.173 322.257 253.397 321.442 255.621 320.716 258.462 320.165 261.325 319.57 264.209 318.756 266.808 318.051 269.45 317.456 272.137L316.509 271.939C316.025 274.537 315.43 277.114 314.726 279.646 313.933 281.826 313.118 284.006 312.281 286.164 311.775 289.071 311.268 292 310.344 294.819 308.185 302.724 307.415 310.894 305.719 318.91 305.301 347.669 305.741 376.429 305.521 405.167 305.125 411.222 308.163 416.794 307.943 422.849 308.648 424.523 310.079 427.848 310.784 429.522 311.423 432.385 311.863 435.291 312.325 438.198 313.603 441.215 314.726 444.254 316.025 447.293 316.091 447.689 316.267 448.482 316.355 448.878 317.589 451.807 318.668 454.802 319.835 457.753 320.429 459.999 321.068 462.223 321.773 464.425 322.433 466.583 323.138 468.741 323.865 470.878 324.569 473.036 325.274 475.216 325.979 477.374 330.713 500.804 341.9 522.187 353.813 542.688 358.306 548.194 361.521 554.778 366.762 559.601 366.674 560.129 366.453 561.208 366.343 561.759 373.324 567.792 377.288 576.425 384.533 582.216 383.498 584.749 385.436 586.312 387.44 587.545 389.069 589.065 390.699 590.562 392.35 592.082 394.442 594.284 396.27 596.728 397.745 599.415 406.4 609.456 416.463 618.177 425.272 628.086 426.241 628.439 428.201 629.165 429.169 629.518 434.278 635.551 441.039 639.713 447.315 644.426 453.371 650.217 461.364 653.587 466.958 659.951 467.464 659.863 468.477 659.664 468.984 659.576 469.931 660.567 471.868 662.593 472.837 663.606 476.008 665.368 479.069 667.372 482.086 669.42 484.729 671.468 487.658 673.053 490.608 674.639 495.211 677.678 499.813 680.871 505.186 682.456L505.164 682.787C508.688 683.976 512.123 685.407 515.602 686.773 517.782 687.543 519.985 688.314 522.187 689.085 524.389 689.789 526.635 690.472 528.881 691.133 530.467 691.793 533.638 693.137 535.223 693.819 538.394 694.722 541.675 694.964 544.957 695.273L544.957 696.44C547.467 697.056 549.933 697.783 552.4 698.642 556.231 699.919 560.019 701.284 564.049 701.835 566.141 702.584 568.277 703.266 570.413 703.927 573.32 705.028 576.271 706.041 579.155 707.208 582.062 707.737 584.991 708.243 587.876 708.926 590.056 709.829 592.258 710.754 594.46 711.678 602.189 712.647 610.073 713.506 617.472 715.995 647.311 716.193 677.193 716.523 707.032 715.84 713.418 713.616 720.267 713.088 726.873 711.678 729.053 710.82 731.255 709.983 733.479 709.146 736.342 708.331 739.249 707.737 742.178 707.12 744.688 706.305 747.265 705.601 749.863 705.006L749.819 703.861C753.056 703.487 756.381 703.288 759.442 702.011 765.806 699.853 772.016 696.946 778.821 696.638 778.667 695.581 778.336 693.489 778.16 692.454L780.979 692.85 780.142 690.252C781.97 690.274 785.647 690.34 787.475 690.362L787.563 687.896C788.51 688.028 790.426 688.292 791.373 688.424L791.945 685.539C792.914 685.671 794.852 685.958 795.821 686.112L795.821 683.337 798.398 684.306C798.42 683.778 798.464 682.699 798.508 682.17 802.141 682.302 805.488 681.465 808.549 679.616 808.946 679.461 809.76 679.175 810.179 679.021 811.522 678.294 814.187 676.863 815.53 676.158L815.662 674.551 818.283 675.322 818.349 672.745C819.141 672.789 820.705 672.899 821.498 672.965 823.656 671.314 825.814 669.662 827.994 668.011 828.743 668.121 830.262 668.319 831.011 668.429L831.077 665.808 833.719 666.535 833.587 664.883C835.569 663.915 837.529 662.924 839.489 661.911L840.986 661.58C842.352 660.832 845.06 659.334 846.426 658.586L846.47 657 848.958 657.793C849.09 657.088 849.376 655.635 849.531 654.93L852.195 655.547C854.375 653.829 856.577 652.133 858.779 650.438 859.55 650.548 861.07 650.79 861.84 650.9L861.796 649.204C864.835 648.015 867.522 646.166 870.076 644.162 870.605 644.228 871.662 644.382 872.19 644.448 874.503 642.422 876.837 640.418 878.995 638.216L880.118 637.753 880.074 636.19C881.351 635.595 883.906 634.362 885.183 633.746 887.407 632.513 889.653 631.323 891.943 630.178 893.353 628.571 894.784 626.985 896.215 625.4 909.824 613.2 922.134 599.745 934.29 586.136 940.015 577.57 947.326 570.193 953.074 561.604 959.856 553.831 965.097 544.846 971.153 536.5 984.344 535.796 997.557 536.368 1010.75 536.963 1016.52 538.372 1022.51 538.659 1028.43 539.077 1037.11 540.905 1045.87 542.358 1054.68 543.437 1057.61 544.472 1060.56 545.309 1063.55 546.234 1067.23 547.159 1071 547.423 1074.78 547.753 1077.58 548.722 1080.42 549.493 1083.31 550.264 1086.43 551.233 1089.65 552.047 1092.82 552.972 1101.52 556.496 1110.37 559.579 1119.29 562.551L1120.46 562.617C1123.32 564.291 1126.42 565.48 1129.55 566.669 1136.07 569.774 1143.12 571.69 1149.46 575.214 1163.88 581.446 1177.58 589.087 1191.43 596.508 1192.62 596.97 1195 597.939 1196.21 598.424 1197.16 599.459 1199.09 601.507 1200.06 602.542 1200.61 602.454 1201.76 602.233 1202.33 602.145 1203.3 603.158 1205.22 605.184 1206.18 606.219 1212.79 607.695 1216.4 614.037 1222.63 616.371L1222.79 617.23C1226.71 619.3 1230.1 622.185 1233.56 624.959 1236.49 627.117 1239.35 629.385 1242.41 631.411 1243.49 632.424 1245.62 634.406 1246.68 635.419 1247.21 635.309 1248.24 635.111 1248.75 635.001 1252.83 639.207 1256.52 644.052 1261.92 646.738 1265.33 650.636 1269.14 654.181 1272.84 657.837 1273.33 657.749 1274.32 657.572 1274.8 657.484 1281.28 664.685 1288.28 671.336 1295 678.294 1296.52 679.77 1298.06 681.245 1299.62 682.721 1299.99 683.712 1300.72 685.716 1301.07 686.706 1311.56 695.735 1319.2 707.34 1327.72 718.109 1331.79 725.089 1336.9 731.387 1341.57 737.994 1342.61 740.46 1343.9 742.772 1346.08 744.512 1347.08 746.802 1348.07 749.114 1349.04 751.471 1349.92 752.439 1351.66 754.377 1352.51 755.346 1354.03 759.222 1355.86 762.966 1357.84 766.665 1362.05 771.818 1364.38 778.116 1367.38 783.974 1367.93 785.097 1369.05 787.321 1369.6 788.422 1371.06 791.307 1372.47 794.214 1373.92 797.12 1374.89 799.983 1375.81 802.868 1376.98 805.709 1378.37 808.571 1379.76 811.456 1381.03 814.407 1381.71 816.609 1382.49 818.767 1383.32 820.925 1386.38 829.007 1390.59 836.78 1391.71 845.501 1393.32 849.817 1394.8 854.221 1395.98 858.713 1397.06 861.598 1398.05 864.505 1399.27 867.368 1399.35 868.535 1399.55 870.869 1399.64 872.058 1400.74 874.943 1401.47 877.938 1402.15 880.977 1403.43 885.359 1403.65 889.961 1405.04 894.322 1405.59 897.911 1406.05 901.522 1407.04 905.024 1407.7 908.745 1408.23 912.511 1409.51 916.1 1409.79 922.002 1409.55 928.058 1411.71 933.695 1412.65 966.705 1413.54 999.759 1412.13 1032.75 1409.46 1040.59 1411.07 1049 1409.79 1057.06 1407.92 1065.71 1407.61 1074.65 1404.51 1083.04 1403.89 1085.38 1403.25 1087.71 1402.57 1090.02 1399.51 1097.82 1396.01 1105.46 1393.21 1113.37 1393.17 1112.18 1393.12 1109.82 1393.1 1108.63L1391.14 1108.72C1389.99 1098.28 1393.54 1088.22 1393.39 1077.85L1394.31 1077.87C1394.8 1074.5 1395.54 1071.17 1396.54 1067.94 1397.17 1061.31 1396.82 1054.5 1398.96 1048.14 1399.11 1044.42 1399.22 1040.67 1399.33 1036.95 1394.99 1030.52 1397.28 1022.42 1396.71 1015.2 1397.26 996.059 1395.02 976.989 1391.69 958.205 1388.56 941.887 1386.12 925.195 1380.04 909.648 1379.16 902.69 1374.65 897.096 1372.22 890.71L1371.32 891.084C1371.12 887.319 1370.02 883.795 1368.55 880.382 1366.96 878.268 1365.4 876.176 1363.83 874.084L1364.3 872.455C1362.23 869.878 1360.16 867.236 1359.14 864.042L1357.4 863.976C1357.51 863.03 1357.78 861.114 1357.89 860.167L1355 859.616C1355.16 858.669 1355.47 856.731 1355.64 855.763L1353.95 855.895C1352.56 852.834 1350.75 850.037 1348.84 847.328L1348.79 845.809C1348.02 844.466 1346.46 841.757 1345.69 840.414L1343.97 839.929C1344.08 838.938 1344.28 836.979 1344.37 835.988L1341.72 835.988 1342.45 833.279 1340.91 833.213C1340.12 831.87 1338.55 829.139 1337.78 827.796 1337.83 827.091 1337.89 825.66 1337.91 824.955L1336 824.889C1335.07 822.643 1334.17 820.419 1333.31 818.195 1331.33 816.058 1329.3 813.922 1326.75 812.513 1326.77 811.808 1326.79 810.355 1326.82 809.65L1325.25 809.606C1323.82 806.479 1321.93 803.573 1319.99 800.776 1319.28 800.379 1317.85 799.543 1317.13 799.146 1308.98 787.145 1298.87 776.509 1288.06 766.819 1287.07 765.828 1285.13 763.846 1284.16 762.855L1283.54 763.142C1278.74 758.275 1273.64 753.695 1268.2 749.599 1265.2 747.419 1262.4 745.018 1259.54 742.728 1255.93 740.394 1252.58 737.707 1249.41 734.823 1248.71 734.162 1247.28 732.841 1246.55 732.18L1244.99 732.532 1244.79 730.969C1240.87 728.921 1237.17 726.499 1233.62 723.878 1230.5 721.808 1227.39 719.672 1224.29 717.558 1223.18 716.831 1220.98 715.334 1219.88 714.607 1219.16 714.695 1217.72 714.871 1217 714.96L1216.93 713.044C1214.62 711.921 1212.31 710.798 1210.04 709.674L1210.06 708.904C1209.18 708.309 1207.42 707.12 1206.51 706.525 1204.33 705.446 1202.2 704.367 1200.04 703.31 1197.24 701.967 1194.45 700.712 1191.69 699.347 1189.03 698.135 1186.32 696.99 1183.5 696.286L1183.55 695.581C1179.38 693.995 1175.29 692.3 1171.26 690.494 1170.86 690.494 1170.07 690.494 1169.67 690.494 1166.72 688.909 1163.73 687.499 1160.73 686.09 1159.24 686.002 1156.22 685.826 1154.72 685.737L1154.74 683.513C1154.08 683.623 1152.81 683.866 1152.17 683.998 1149.22 682.434 1146.22 681.025 1143.16 679.792 1136.84 678.669 1130.72 676.158 1124.2 676.577 1124.24 676.224 1124.31 675.564 1124.33 675.233 1122.09 675.079 1117.62 674.727 1115.37 674.551L1116.07 673.031C1111.38 672.635 1106.69 672.349 1102 672.305L1102.35 670.697C1097.53 670.323 1092.56 670.653 1088 668.869 1084.56 668.341 1081.15 667.878 1077.76 667.482L1078.24 666.535C1051.38 665.104 1024.49 665.676 997.623 666.095 992.426 669.684 985.555 666.667 980.072 669.662 976.306 670.213 972.541 670.675 968.775 671.226 965.912 672.151 962.983 672.877 960.099 673.648 958.469 674.287 955.21 675.586 953.58 676.246 950.343 677.083 946.996 677.391 943.693 677.766L943.847 679.461C942.217 679.484 938.914 679.55 937.263 679.572L937.351 681.135C933.739 681.906 930.282 683.139 926.781 684.24 924.645 685.011 922.487 685.716 920.328 686.332 917.334 687.609 914.361 688.909 911.498 690.406 910.815 690.252 909.428 689.922 908.723 689.745L908.679 691.639C905.817 692.3 903.064 693.313 900.443 694.612 899.959 694.568 899.034 694.48 898.572 694.458 895.753 696.418 892.758 698.091 889.675 699.589 886.812 700.8 883.95 702.011 881.131 703.31 873.798 706.591 867.368 711.502 860.167 715.004 854.089 717.998 849.398 723.085 843.387 726.168 841.008 727.908 838.74 729.824 836.142 731.189L835.877 731.475C831.583 734.933 827.267 738.39 822.819 741.649 819.362 744.182 816.125 747 813.086 750.039L811.522 749.951 811.676 752.417 809.122 751.977 809.232 753.276C806.215 754.84 803.727 757.152 801.392 759.574 795.249 765.916 789.215 772.391 782.696 778.358 777.147 782.212 771.422 786.33 768.559 792.694 765.212 796.019 762.063 799.587 759.817 803.771 750.832 812.755 745.635 824.647 738.016 834.71 731.806 845.501 725.662 856.335 720.641 867.742 719.144 870.627 717.712 873.534 716.347 876.484 715.268 879.347 714.255 882.254 713.088 885.117 707.384 896.391 704.654 908.811 700.139 920.571 699.391 923.367 698.796 926.208 698.179 929.049 697.387 931.669 696.726 934.312 696.176 936.998L694.876 936.91C694.7 940.984 694.876 945.19 693.225 949 692.52 951.995 691.837 955.012 690.648 957.852 689.9 964.503 692.146 971.88 688.688 978.002 688.314 1006.5 688.314 1035.01 688.688 1063.51 691.705 1068.16 690.142 1073.84 690.538 1079.03 690.406 1083.64 692.432 1087.93 693.181 1092.45 694.15 1095.26 694.722 1098.17 695.339 1101.12 696.638 1104.29 696.88 1107.68 697.144 1111.08L698.51 1110.66C698.818 1114.09 699.148 1117.57 700.117 1120.94 700.932 1123.05 701.747 1125.21 702.518 1127.37 704.323 1133.36 706.261 1139.31 708.639 1145.1 709.564 1147.37 710.445 1149.66 711.304 1151.97 713.176 1156.37 714.982 1160.8 716.743 1165.27 716.831 1165.69 717.008 1166.5 717.096 1166.9 718.373 1169.81 719.496 1172.8 720.729 1175.75 723.504 1182.05 726.917 1188.06 729.802 1194.32 732.709 1201.23 727.776 1207.99 723.79 1213.3 722.733 1215.57 721.676 1217.88 720.707 1220.21 719.672 1221.25 717.624 1223.32 716.589 1224.35 716.699 1224.88 716.941 1225.94 717.052 1226.47 714.541 1228.07 712.801 1230.34 711.965 1233.2 710.071 1235.1 708.287 1237.15 707.671 1239.83 704.367 1242.83 702.011 1246.62 699.611 1250.34 698.84 1250.98 697.299 1252.25 696.506 1252.89 696.66 1253.49 696.946 1254.63 697.078 1255.23 696.22 1255.75 694.502 1256.86 693.643 1257.41 693.181 1258.26 692.256 1260 691.793 1260.89L690.714 1260.31C689.701 1262.25 688.71 1264.21 687.741 1266.17 687.059 1266.98 685.693 1268.64 685.011 1269.47L683.579 1269.39 683.712 1271.68 682.302 1271.48C681.509 1272.27 679.902 1273.88 679.109 1274.67L679.351 1276.1 677.81 1275.88C677.149 1276.72 675.85 1278.37 675.189 1279.21 674.221 1280.92 673.252 1282.66 672.283 1284.43 671.622 1285.11 670.323 1286.5 669.662 1287.2L669.134 1286.96C668.341 1287.75 666.733 1289.31 665.941 1290.11L666.161 1291.54 663.827 1291.45 663.959 1293.76 661.646 1293.65 661.801 1296.01 660.369 1295.81C659.576 1296.6 657.991 1298.19 657.198 1298.98L657.418 1299.49C656.56 1300.39 654.842 1302.2 653.983 1303.1 653.256 1302.92 651.781 1302.57 651.054 1302.37L650.944 1304.86 648.588 1304.84 648.83 1306.29C648.037 1307.09 646.474 1308.67 645.681 1309.46L644.206 1309.22 644.426 1310.76C641.805 1313.25 639.207 1315.76 636.63 1318.29 636.124 1318.21 635.111 1318.01 634.604 1317.9 632.16 1321.18 629.253 1324.13 625.73 1326.27 622.493 1328.62 619.564 1331.35 616.503 1333.93 615.534 1334.44 613.618 1335.47 612.649 1335.98L612.605 1338.11C611.835 1337.91 610.271 1337.54 609.5 1337.36 608.443 1338.64 606.373 1341.2 605.316 1342.47 604.722 1342.28 603.555 1341.88 602.96 1341.68 601.947 1343 599.921 1345.62 598.908 1346.94 598.314 1346.72 597.125 1346.28 596.53 1346.06 595.539 1347.36 593.535 1349.94 592.522 1351.24 591.751 1351.04 590.21 1350.64 589.439 1350.44L588.867 1353.33C587.898 1353.2 585.96 1352.93 584.991 1352.82L584.506 1355.58C583.56 1355.42 581.644 1355.14 580.675 1355L580.102 1357.71C579.376 1357.67 577.922 1357.56 577.195 1357.49 575.918 1358.28 573.364 1359.87 572.087 1360.66L571.866 1362.42 569.224 1361.94 569.048 1363.55C566.383 1364.63 563.785 1365.84 561.142 1366.98 560.085 1367.64 557.971 1368.94 556.936 1369.6 555.593 1370.09 552.928 1371.01 551.585 1371.47L551.211 1373.41C550.286 1373.26 548.414 1372.95 547.467 1372.82 547.291 1373.57 546.894 1375.06 546.718 1375.81L543.217 1374.84 542.644 1377.75C541.675 1377.62 539.716 1377.35 538.747 1377.22L538.35 1379.98C537.381 1379.84 535.443 1379.53 534.474 1379.38L533.902 1382.27C532.933 1382.07 530.973 1381.69 529.982 1381.49L530.048 1383.26C527.075 1383.76 524.301 1384.8 521.724 1386.34 521.042 1386.3 519.698 1386.19 519.016 1386.14L518.487 1388.7C517.782 1388.54 516.395 1388.21 515.69 1388.03 513.07 1389.51 510.339 1390.72 507.455 1391.62L507.411 1393.08C506.772 1392.95 505.451 1392.68 504.812 1392.55 502.522 1393.69 500.188 1394.75 497.809 1395.74 495.497 1396.54 493.185 1397.35 490.895 1398.21 488.781 1398.85 486.689 1399.46 484.575 1400.06 479.95 1402.11 475.194 1404.07 470.107 1404.51L470.371 1405.96C466.738 1406 462.928 1405.85 460.021 1408.49L458.215 1408.01C454.714 1411.05 449.979 1410.28 445.729 1410.5L445.928 1412.48C443.065 1412.59 440.224 1412.7 437.383 1412.85L437.471 1414.68C432.979 1414.59 428.487 1414.68 424.017 1414.88L424.391 1416.86C420.559 1416.75 416.706 1416.73 412.874 1416.73L412.918 1418.91C406.29 1418.75 399.661 1418.8 393.033 1419.3L393.451 1421.13C382.815 1421.64 371.562 1419.06 361.411 1422.92 359.363 1423.07 357.315 1423.2 355.289 1423.38L355.861 1421.51C341.107 1420.47 326.287 1421.11 311.511 1421.04L311.599 1418.91C306.314 1418.84 301.007 1418.82 295.7 1418.95L296.206 1416.99C291.009 1416.75 285.812 1416.68 280.615 1416.73L280.835 1414.5C277.686 1414.57 274.559 1414.66 271.432 1414.77L271.873 1412.74C268.107 1412.59 264.341 1412.48 260.598 1412.46L260.862 1410.43C257.911 1410.39 254.982 1410.34 252.054 1410.34L252.296 1408.58C248.728 1408.65 245.403 1407.88 242.298 1406.22 240.779 1406.2 237.74 1406.18 236.198 1406.18L236.507 1404.33C231.332 1404.31 226.421 1402.81 221.51 1401.4 221.444 1401.07 221.268 1400.45 221.18 1400.15 219.286 1399.68 215.521 1398.78 213.627 1398.32 211.469 1397.5 209.311 1396.78 207.153 1396.01 205.589 1395.48 202.44 1394.4 200.877 1393.85 198.498 1392.95 196.12 1392.04 193.786 1391.07 189.822 1389.71 185.968 1388.03 182.401 1385.83 181.696 1386.03 180.287 1386.43 179.582 1386.63L179.186 1384.05C178.393 1384.14 176.83 1384.34 176.037 1384.42 173.769 1382.86 171.5 1381.3 169.232 1379.76 168.506 1379.84 167.008 1380 166.281 1380.09L165.753 1377.33C164.762 1377.46 162.802 1377.75 161.811 1377.88L161.371 1375.11C160.402 1375.26 158.42 1375.55 157.451 1375.68L157.033 1372.86C156.042 1373.02 154.082 1373.35 153.113 1373.5L152.716 1370.7C151.748 1370.84 149.788 1371.12 148.819 1371.25L148.334 1369.54C146.969 1368.88 144.194 1367.53 142.807 1366.87 142.367 1366.78 141.486 1366.59 141.045 1366.5 138.138 1364.74 135.188 1363.11 132.193 1361.52 131.158 1360.64 129.066 1358.92 128.031 1358.04 125.608 1357.12 123.23 1356.13 120.808 1355.2 116.844 1352.8 112.946 1350.29 108.916 1348L108.586 1346.28C107.617 1346.46 105.679 1346.77 104.71 1346.92L104.226 1344.04C103.257 1344.23 101.341 1344.59 100.372 1344.79L100.416 1343.07C99.5134 1342.23 97.7297 1340.54 96.8268 1339.7 96.2543 1339.92 95.1092 1340.34 94.5146 1340.56 94.0522 1339.57 93.0833 1337.61 92.6208 1336.64 91.6959 1336.2 89.8682 1335.36 88.9433 1334.94L89.0974 1334.28C86.4989 1332.89 83.9665 1331.35 81.4561 1329.88 79.3201 1328.23 77.206 1326.6 74.8718 1325.27 72.4715 1323.29 70.2253 1321.13 68.0232 1319 63.8833 1316.8 60.4259 1313.65 57.321 1310.19 53.9297 1306.75 50.2962 1303.5 47.7418 1299.36 44.1964 1294.64 39.3738 1290.7 37.7882 1284.8L36.3569 1285.48C36.3348 1284.07 36.2688 1281.25 36.2468 1279.85 37.3258 1281.25 38.4048 1282.66 39.4839 1284.1 40.7611 1284.29 43.3376 1284.71 44.6148 1284.93 45.6938 1286.08 47.8519 1288.35 48.9309 1289.49 49.4374 1289.38 50.4724 1289.14 50.9789 1289.03 54.1279 1291.89 57.1007 1294.95 59.7873 1298.3 60.492 1298.14 61.9014 1297.84 62.606 1297.68L62.7382 1300.21 65.1164 1300.15 65.0284 1301.51C65.8211 1302.31 67.4066 1303.89 68.1994 1304.68L69.5207 1304.6 69.4766 1305.94C70.2914 1306.75 71.921 1308.41 72.7578 1309.22 73.2863 1309.07 74.3653 1308.78 74.9158 1308.63 75.8407 1309.77 77.7345 1312.04 78.6814 1313.19 79.3861 1313.82 80.8175 1315.08 81.5222 1315.7 82.0287 1315.61 83.0636 1315.43 83.5701 1315.34 84.5831 1316.51 86.587 1318.84 87.578 1320.01 94.5366 1324.35 101.848 1328.16 108.278 1333.27 109.005 1333.18 110.458 1333.03 111.185 1332.96L111.691 1335.62C112.638 1335.49 114.532 1335.23 115.479 1335.12L115.919 1336.97C117.218 1337.43 119.795 1338.33 121.094 1338.8 122.151 1339.41 124.265 1340.62 125.322 1341.22 127.678 1342.39 129.991 1343.6 132.303 1344.83 134.813 1345.93 137.412 1346.86 140.054 1347.6L140.12 1349.19C140.781 1349.08 142.124 1348.86 142.807 1348.75 145.405 1350.29 148.202 1351.35 151.197 1351.92L151.219 1353.7C151.88 1353.59 153.223 1353.4 153.906 1353.31 156.372 1354.87 159.081 1355.82 161.987 1356.19L161.899 1357.82C163.507 1357.8 166.722 1357.8 168.307 1357.8L168.263 1359.36C171.126 1359.78 173.835 1360.71 176.345 1362.12 176.852 1362.07 177.82 1361.98 178.327 1361.94 180.815 1363.44 183.502 1364.36 186.431 1364.71L186.343 1366.3C187.95 1366.3 191.165 1366.3 192.773 1366.3L192.751 1368.46C194.358 1368.46 197.551 1368.46 199.159 1368.46L199.027 1370.31C202.462 1370.55 206.008 1370.55 209.024 1372.47 212.372 1372.71 215.697 1372.93 219.022 1373.21L218.78 1375.02C225.849 1375.26 233.578 1373.3 240.096 1376.85 266.389 1377.02 292.705 1377.22 318.998 1376.74 323.71 1373.7 329.458 1375.15 334.699 1374.71 338.971 1371.89 344.146 1372.86 348.947 1372.66L348.88 1370.92C355.112 1370.97 360.97 1368.7 367.114 1368.08L366.982 1366.43C368.589 1366.43 371.782 1366.41 373.39 1366.39L373.324 1364.25C376.253 1364.21 379.182 1364.19 382.132 1364.19L381.78 1362.05C383.454 1362.05 386.779 1362.01 388.43 1361.98L388.21 1360.53C391.117 1359.94 393.87 1358.94 396.49 1357.56 397.195 1357.58 398.582 1357.67 399.265 1357.69L399.177 1356.21C402.194 1355.44 405.144 1354.43 407.897 1352.96L410.363 1353.33 410.496 1350.89C411.575 1351.06 413.733 1351.41 414.812 1351.59L415.296 1348.82C415.979 1348.86 417.366 1348.95 418.049 1348.99 420.625 1347.43 423.378 1346.33 426.329 1345.67L426.373 1345.14C433.97 1342.47 440.62 1337.74 448.152 1334.9L448.46 1333.11C449.429 1333.25 451.323 1333.53 452.27 1333.69L452.754 1330.91C453.525 1331.04 455.066 1331.29 455.837 1331.42 456.806 1330.38 458.788 1328.36 459.757 1327.32 461.012 1326.68 463.522 1325.38 464.778 1324.75L466.429 1324.59C467.949 1323.6 469.49 1322.63 471.054 1321.66 472.287 1321.13 474.775 1320.06 476.03 1319.53 476.141 1318.98 476.339 1317.88 476.449 1317.33L478.1 1318.07C480.941 1315.48 483.826 1312.9 487.019 1310.74 490.124 1308.41 493.053 1305.76 496.488 1303.89L496.598 1302.66 498.91 1302.7 498.844 1300.39 501.135 1300.48 501.024 1298.19 503.381 1298.3 503.469 1295.74C504.262 1295.92 505.825 1296.25 506.618 1296.43 507.565 1295.15 509.458 1292.6 510.405 1291.3L512.057 1291.58 511.837 1290.17C512.63 1289.36 514.193 1287.75 514.986 1286.94L515.404 1286.96C517.628 1285.2 519.919 1283.54 522.209 1281.92 527.494 1275.57 534.827 1270.9 538.614 1263.46 542.314 1259.15 546.718 1255.42 549.911 1250.69 552.003 1247.19 554.91 1244.33 558.015 1241.73 557.949 1241.2 557.817 1240.16 557.751 1239.66 566.89 1231.33 573.386 1220.76 580.653 1210.88 581.446 1209.86 583.053 1207.79 583.846 1206.76 584.903 1204.42 586.004 1202.11 587.105 1199.82 592.632 1192.75 595.561 1184.14 599.811 1176.3 602.586 1170.47 605.427 1164.65 608.245 1158.84 608.884 1156.55 609.655 1154.3 610.557 1152.1 615.38 1140.34 618.639 1128.01 623.043 1116.1 623.858 1113.23 624.475 1110.35 625.025 1107.44 625.774 1105.26 626.545 1103.06 627.293 1100.9 629.275 1096.39 628.879 1091.41 628.879 1086.65L630.817 1086.68C631.411 1080.44 629.518 1073.62 632.887 1067.96 634.274 1058.51 630.729 1048.12 634.891 1039.31 635.441 1026.49 635.023 1013.68 635.133 1000.86L633.085 1000.86C633.019 992.404 633.195 983.969 632.887 975.535 630.024 971.241 631.103 965.934 630.817 961.112L628.945 961.75C628.923 956.443 628.835 951.136 628.593 945.851L627.073 946.159C626.391 936.558 622.669 927.551 621.128 918.082 619.63 913.59 618.111 909.098 616.878 904.561 616.371 903.46 615.336 901.302 614.83 900.201 613.993 898.087 613.222 895.951 612.495 893.815 611.196 890.138 609.941 886.438 608.598 882.782 606.638 879.215 604.81 875.604 602.982 871.97 602.277 870.407 601.573 868.843 600.868 867.302 595.693 857.282 591.399 846.8 585.299 837.287 583.692 834.82 581.864 832.486 580.014 830.24 580.102 829.513 580.256 828.06 580.322 827.355L578.296 827.443C577.24 825.483 576.182 823.524 575.125 821.586 570.545 813.636 564.071 807.052 559.27 799.322 550.946 792.166 545.815 782.278 537.491 775.121 530.357 768.691 524.697 760.521 516.527 755.324L516.549 754.928C515.734 754.223 514.127 752.792 513.312 752.065L511.859 752.241 512.013 749.819 509.547 749.819 509.392 747.066C508.446 747.309 506.574 747.771 505.649 748.013L505.671 745.393 503.182 745.459 503.403 743.983C502.588 743.213 500.98 741.627 500.188 740.856L498.778 740.988 498.602 739.821C495.079 737.751 492.04 735.043 488.891 732.51 486.623 731.189 484.376 729.824 482.13 728.503 480.413 727.225 478.695 725.992 476.955 724.759L476.669 723.328 474.027 723.922 474.049 721.103C473.08 721.192 471.186 721.39 470.217 721.478L469.71 718.615C468.719 718.835 466.782 719.254 465.813 719.452L465.791 716.831 463.104 717.029 463.126 714.299C462.157 714.475 460.241 714.805 459.272 714.982L458.744 712.053C457.775 712.251 455.859 712.625 454.89 712.823L454.934 711.106C454.053 710.291 452.27 708.661 451.389 707.825 450.86 707.957 449.825 708.177 449.319 708.287 447.117 706.702 444.915 705.116 442.735 703.531L440.797 703.685C438.55 702.297 436.26 700.998 433.992 699.721 432.803 698.994 430.447 697.541 429.258 696.814L426.483 697.409C426.417 696.814 426.241 695.647 426.153 695.052 424.479 694.942 421.11 694.744 419.436 694.634L419.48 692.41C417.785 692.344 414.349 692.234 412.632 692.168L412.698 689.613C411.993 689.767 410.606 690.076 409.923 690.23 406.84 688.578 403.691 687.103 400.586 685.561 399.815 685.804 398.274 686.31 397.503 686.552L397.305 684.747C394.861 683.734 392.438 682.655 390.06 681.509 389.047 681.576 386.977 681.708 385.964 681.774L386.449 679.484C384.224 679.461 379.776 679.373 377.552 679.351L377.794 677.854C375.174 677.259 372.597 676.555 370.043 675.74 365.374 675.189 360.926 673.604 357.16 670.785 355.068 670.807 352.998 670.829 350.906 670.873L351.105 668.803C346.392 668.451 341.151 669.684 337.011 666.755 328.137 665.61 318.535 668.583 310.233 664.619 300.985 663.805 291.471 665.478 282.377 663.672 277.906 659.488 273.568 655.128 270.001 650.151 268.944 647.707 267.799 645.307 266.676 642.906 265.156 639.295 263.857 635.617 262.448 632.006 261.126 628.989 259.959 625.95 258.66 622.955 258.66 622.493 258.638 621.546 258.638 621.062 257.097 618.837 255.577 616.591 254.058 614.367 254.19 613.618 254.476 612.099 254.608 611.35L252.868 611.416C252.252 608.774 251.503 606.175 250.578 603.621 245.998 595.209 244.06 585.696 239.898 577.085 239.237 574.861 238.577 572.637 237.938 570.435 237.101 568.255 236.265 566.075 235.406 563.917 234.547 560.636 234.239 557.244 233.864 553.875L232.235 554.183C232.191 552.466 232.103 549.008 232.036 547.269L230.517 547.687C229.834 541.94 228.029 536.412 227.522 530.665 225.562 526.921 225.893 522.627 225.672 518.575L223.999 518.663C223.801 514.457 224.175 510.053 221.995 506.243 221.709 501.135 222.193 495.805 219.815 491.115 219.925 480.743 219.44 470.415 217.525 460.197 217.569 459.118 217.679 456.96 217.723 455.881 219.727 441.92 217.238 427.716 219.198 413.755 220.035 407.347 219.462 400.872 219.903 394.442 222.303 386.096 223.074 377.156 223.933 368.457L225.672 368.633C225.827 364.229 225.915 359.825 225.893 355.443L227.588 355.685C227.919 352.316 227.919 348.858 229.394 345.732 229.989 342.891 230.495 340.05 231.266 337.253 232.103 335.029 232.961 332.827 233.842 330.625 234.327 327.652 234.899 324.679 235.758 321.795 238.268 314.263 240.779 306.71 243.884 299.399 245.007 296.514 246.152 293.652 247.385 290.811 248.53 287.133 249.984 283.566 251.679 280.087 252.296 277.906 252.979 275.726 253.705 273.568 254.278 272.511 255.401 270.375 255.951 269.296 259.321 257.427 265.509 246.659 270.397 235.384 271.234 234.393 272.886 232.411 273.7 231.398 275.088 228.491 276.475 225.562 277.818 222.633 279.184 220.321 280.659 218.075 282.179 215.851 284.227 213.054 286.142 210.148 287.904 207.153 291.207 202 293.718 196.296 297.968 191.804 303.385 184.339 309.683 177.49 314.594 169.629 317.611 165.665 320.451 161.525 323.931 157.935 324.327 156.989 325.098 155.139 325.494 154.192 335.976 143.952 345.665 132.875 356.566 123.098 358.019 119.222 362.379 117.417 365.595 115.17 368.766 111.471 372.509 108.366 376.803 106.076 378.961 103.697 381.163 101.341 383.388 99.0069 387.021 97.0471 390.478 94.7569 393.958 92.5327 401.753 86.2787 409.372 79.232 418.643 75.3122 419.634 74.3873 421.572 72.5596 422.563 71.6567 424.875 70.6658 427.21 69.6748 429.588 68.794 433.816 66.1955 437.538 62.7161 442.228 60.8664 447.095 58.7964 451.807 56.286 455.947 52.9388 467.024 47.3894 477.99 41.5759 489.133 36.1146 492.106 34.5732 495.079 33.0317 498.074 31.5122 500.87 30.4332 503.733 29.5083 506.552 28.4953 509.745 27.4823 512.85 26.2712 515.977 25.0821L516.373 23.9149C519.676 23.5626 522.979 22.99 526.173 22.0431 529.035 20.9861 531.942 20.0612 534.849 19.0923Z" fill="#FFFFFF" transform="matrix(1 0 0 1.0006 2605 430.275)"/></g></g></g></g></svg>