<svg width="1994" height="1994" xmlns="http://www.w3.org/2000/svg" xmlns:xlink="http://www.w3.org/1999/xlink" xml:space="preserve" overflow="hidden"><defs><clipPath id="clip0"><rect x="1158" y="189" width="1994" height="1994"/></clipPath></defs><g clip-path="url(#clip0)" transform="translate(-1158 -189)"><path d="M1158 521.34C1158 337.794 1306.79 189 1490.34 189L2819.66 189C3003.21 189 3152 337.794 3152 521.34L3152 1850.66C3152 2034.21 3003.21 2183 2819.66 2183L1490.34 2183C1306.79 2183 1158 2034.21 1158 1850.66Z" fill="#7F7F7F" fill-rule="evenodd"/><path d="M1798 1186C1798 988.834 1958.06 829 2155.5 829 2352.94 829 2513 988.834 2513 1186 2513 1383.17 2352.94 1543 2155.5 1543 1958.06 1543 1798 1383.17 1798 1186Z" fill="#D9D9D9" fill-rule="evenodd"/><path d="M1796 958 1806.31 574.242 2163.66 249 2521 574.242 2490.06 940.789C2306.84 748.029 2092.68 672.302 1796 958Z" fill="#D9D9D9" fill-rule="evenodd"/><path d="M1923 1554 1539.78 1543.69 1215 1186.34 1539.78 829 1905.81 859.943C1713.33 1043.16 1637.71 1257.32 1923 1554Z" fill="#D9D9D9" fill-rule="evenodd"/><path d="M2384 829 2767.22 839.314 3092 1196.66 2767.22 1554 2401.19 1523.06C2593.67 1339.84 2669.29 1125.68 2384 829Z" fill="#D9D9D9" fill-rule="evenodd"/><path d="M2513 1415 2502.69 1798.22 2145.34 2123 1788 1798.22 1818.94 1432.19C2002.16 1624.67 2216.32 1700.29 2513 1415Z" fill="#D9D9D9" fill-rule="evenodd"/><text fill="#7F7F7F" font-family="Arial,Arial_MSFontService,sans-serif" font-weight="700" font-size="174" transform="matrix(1 0 0 1 1859.92 1248)">ENTER</text></g></svg>