<svg width="128.000000pt" height="128.000000pt" viewBox="0 0 128.000000 128.000000" xmlns="http://www.w3.org/2000/svg">
  <g transform="translate(0.000000,128.000000) scale(0.100000,-0.100000)" fill="transparent" stroke="none">
    <path d="M0 640 l0 -640 640 0 640 0 0 640 0 640 -640 0 -640 0 0 -640z m460
75 l0 -315 45 0 45 0 0 -45 0 -45 90 0 90 0 0 45 0 45 45 0 45 0 0 315 0 315
85 0 85 0 0 -310 0 -310 -45 0 -45 0 0 -40 0 -40 -45 0 -45 0 0 -45 0 -45 -45
0 -45 0 0 -45 0 -45 -80 0 -80 0 0 45 0 45 -45 0 -45 0 0 45 0 45 -45 0 -45 0
0 40 0 40 -45 0 -45 0 0 310 0 310 85 0 85 0 0 -315z" />
  </g>
  <g transform="translate(0.000000,128.000000) scale(0.100000,-0.100000)" fill="#b2b3ba" stroke="none">
    <path d="M280 720 l0 -320 45 0 45 0 0 -40 0 -40 45 0 45 0 0 -45 0 -45 45 0
45 0 0 -45 0 -45 90 0 90 0 0 45 0 45 45 0 45 0 0 45 0 45 45 0 45 0 0 40 0
40 45 0 45 0 0 320 0 320 -95 0 -95 0 0 -50 0 -50 45 0 45 0 0 -260 0 -260
-45 0 -45 0 0 -45 0 -45 -45 0 -45 0 0 -45 0 -45 -80 0 -80 0 0 45 0 45 -45 0
-45 0 0 45 0 45 -45 0 -45 0 0 260 0 260 45 0 45 0 0 50 0 50 -95 0 -95 0 0
-320z" />
  </g>
  <g transform="translate(0.000000,128.000000) scale(0.100000,-0.100000)" fill="#562e8c" stroke="none">
    <path d="M370 680 l0 -270 45 0 45 0 0 -45 0 -45 45 0 45 0 0 -45 0 -45 90 0
90 0 0 45 0 45 45 0 45 0 0 45 0 45 45 0 45 0 0 270 0 270 -50 0 -50 0 0 -270
0 -270 -45 0 -45 0 0 -45 0 -45 -80 0 -80 0 0 45 0 45 -45 0 -45 0 0 270 0
270 -50 0 -50 0 0 -270z" />
  </g>
  <g transform="translate(0.000000,128.000000) scale(0.100000,-0.100000)" fill="#6a4e97" stroke="none">
    <path d="M368 675 c-2 -150 0 -271 4 -267 10 10 15 542 6 542 -4 0 -9 -124
-10 -275z" />
    <path d="M898 683 c1 -147 6 -271 10 -275 4 -4 6 117 4 267 -1 151 -6 275 -10
275 -4 0 -6 -120 -4 -267z" />
    <path d="M463 370 c0 -30 2 -43 4 -27 2 15 2 39 0 55 -2 15 -4 2 -4 -28z" />
    <path d="M813 370 c0 -30 2 -43 4 -27 2 15 2 39 0 55 -2 15 -4 2 -4 -28z" />
    <path d="M552 283 l-2 -53 90 0 90 0 -2 53 -2 52 -3 -47 -4 -48 -79 0 -79 0
-4 48 -3 47 -2 -52z" />
  </g>
  <g transform="translate(0.000000,128.000000) scale(0.100000,-0.100000)" fill="#4d4757" stroke="none">
    <path d="M458 773 c4 -336 8 -367 10 -95 1 149 -1 272 -5 272 -5 0 -7 -80 -5
-177z" />
    <path d="M812 678 c2 -272 6 -241 10 95 2 97 0 177 -4 177 -5 0 -7 -123 -6
-272z" />
    <path d="M553 365 c0 -27 2 -38 4 -22 2 15 2 37 0 50 -2 12 -4 0 -4 -28z" />
    <path d="M723 365 c0 -27 2 -38 4 -22 2 15 2 37 0 50 -2 12 -4 0 -4 -28z" />
  </g>
  <g transform="translate(0.000000,128.000000) scale(0.100000,-0.100000)" fill="#9b9ca2" stroke="none">
    <path d="M305 1034 c71 -8 165 -8 165 -1 0 4 -44 6 -97 5 -54 0 -84 -3 -68 -4z" />
    <path d="M810 1033 c0 -5 30 -7 67 -5 119 5 131 9 31 10 -54 1 -98 -1 -98 -5z" />
  </g>
  <g transform="translate(0.000000,128.000000) scale(0.100000,-0.100000)" fill="#5a5c5e" stroke="none">
    <path d="M458 990 c-1 -28 0 -50 5 -50 4 0 7 23 7 50 0 28 -2 50 -4 50 -2 0
-6 -23 -8 -50z" />
    <path d="M811 993 c0 -29 3 -53 7 -53 4 0 6 17 4 38 -6 64 -10 69 -11 15z" />
    <path d="M303 403 c15 -2 37 -2 50 0 12 2 0 4 -28 4 -27 0 -38 -2 -22 -4z" />
    <path d="M933 403 c15 -2 37 -2 50 0 12 2 0 4 -28 4 -27 0 -38 -2 -22 -4z" />
  </g>
  <g transform="translate(0.000000,128.000000) scale(0.100000,-0.100000)" fill="#82769b" stroke="none">
    <path d="M393 943 c15 -2 39 -2 55 0 15 2 2 4 -28 4 -30 0 -43 -2 -27 -4z" />
    <path d="M833 943 c15 -2 39 -2 55 0 15 2 2 4 -28 4 -30 0 -43 -2 -27 -4z" />
  </g>
  <g transform="translate(0.000000,128.000000) scale(0.100000,-0.100000)" fill="#7a659e" stroke="none" />
  <g transform="translate(0.000000,128.000000) scale(0.100000,-0.100000)" fill="#575460" stroke="none" />
  <g transform="translate(0.000000,128.000000) scale(0.100000,-0.100000)" fill="#505052" stroke="none" />
  <g transform="translate(0.000000,128.000000) scale(0.100000,-0.100000)" fill="#8d84a3" stroke="none" />
  <g transform="translate(0.000000,128.000000) scale(0.100000,-0.100000)" fill="#000000" stroke="none" />
  <g transform="translate(0.000000,128.000000) scale(0.100000,-0.100000)" fill="#000000" stroke="none" />
  <g transform="translate(0.000000,128.000000) scale(0.100000,-0.100000)" fill="#000000" stroke="none" />
  <g transform="translate(0.000000,128.000000) scale(0.100000,-0.100000)" fill="#000000" stroke="none" />
  <g transform="translate(0.000000,128.000000) scale(0.100000,-0.100000)" fill="#000000" stroke="none" />
  <g transform="translate(0.000000,128.000000) scale(0.100000,-0.100000)" fill="#0000ff" stroke="none" />
  <g transform="translate(0.000000,128.000000) scale(0.100000,-0.100000)" fill="#000000" stroke="none" />
  <g transform="translate(0.000000,128.000000) scale(0.100000,-0.100000)" fill="#ffffff" stroke="none" />
  <g transform="translate(0.000000,128.000000) scale(0.100000,-0.100000)" fill="#00ffff" stroke="none" />
  <g transform="translate(0.000000,128.000000) scale(0.100000,-0.100000)" fill="#ff00ff" stroke="none" />
  <g transform="translate(0.000000,128.000000) scale(0.100000,-0.100000)" fill="#000000" stroke="none" />
  <g transform="translate(0.000000,128.000000) scale(0.100000,-0.100000)" fill="#000000" stroke="none" />
  <g transform="translate(0.000000,128.000000) scale(0.100000,-0.100000)" fill="#000000" stroke="none" />
</svg>
